<svg xmlns="http://www.w3.org/2000/svg" viewBox="0 0 512 512">
  <rect width="512" height="512" rx="15%" fill="#4a90e2"/>
  <path d="M400 192V128c0-17.7-14.3-32-32-32H112c-35.3 0-64 28.7-64 64v224c0 35.3 28.7 64 64 64h288c17.7 0 32-14.3 32-32v-64" fill="none" stroke="white" stroke-width="32" stroke-linecap="round" stroke-linejoin="round"/>
  <path d="M464 192H336c-17.7 0-32 14.3-32 32v64c0 17.7 14.3 32 32 32h128c17.7 0 32-14.3 32-32v-64c0-17.7-14.3-32-32-32z" fill="white"/>
  <circle cx="384" cy="256" r="16" fill="#4a90e2"/>
</svg>
